<?xml version="1.0" encoding="utf-8"?>
<!-- Generator: Adobe Illustrator 24.3.0, SVG Export Plug-In . SVG Version: 6.00 Build 0)  -->
<svg version="1.1" id="Livello_1" xmlns="http://www.w3.org/2000/svg" xmlns:xlink="http://www.w3.org/1999/xlink" x="0px" y="0px"
	 viewBox="0 0 1000 938.6" style="enable-background:new 0 0 1000 938.6;" xml:space="preserve">
<style type="text/css">
	.st0{display:none;}
	.st1{display:inline;fill:#FFFFFF;}
	.st2{clip-path:url(#SVGID_2_);}
	.st3{fill:#FFA69E;}
	.st4{fill:#58CC92;}
	.st5{fill:#1F91A3;}
	.st6{fill:none;stroke:#01008A;stroke-width:0.5;stroke-miterlimit:10;}
	.st7{fill:#2D0070;}
	.st8{fill:#FFFFFF;}
	.st9{fill:#8AD1B9;}
	.st10{fill:#FF8270;}
	.st11{fill:url(#SVGID_3_);}
	.st12{fill:none;stroke:#29273D;stroke-width:0.75;stroke-miterlimit:10;}
	.st13{fill:none;stroke:#2D0070;stroke-width:2;stroke-miterlimit:10;}
	.st14{fill:none;stroke:#2D0070;stroke-miterlimit:10;}
	.st15{fill:none;stroke:#01008A;stroke-width:2;stroke-miterlimit:10;}
	.st16{opacity:0.51;}
	.st17{fill:none;stroke:#4A29C2;stroke-width:0.75;stroke-miterlimit:10;}
	.st18{fill:none;stroke:#4A29C2;stroke-width:0.75;stroke-miterlimit:10.0006;}
</style>
<g id="BACKGROUND" class="st0">
	<rect id="XMLID_28_" x="250" y="188.6" class="st1" width="500" height="500"/>
</g>
<g id="DESIGNED_BY_FREEPIK" class="st0">
</g>
<g>
	<defs>
		<circle id="SVGID_1_" cx="497.8" cy="446.6" r="390.7"/>
	</defs>
	<clipPath id="SVGID_2_">
		<use xlink:href="#SVGID_1_"  style="overflow:visible;"/>
	</clipPath>
	<g id="OBJECTS" class="st2">
		<g id="XMLID_55_">
		</g>
		<g id="XMLID_122_">
		</g>
		<circle class="st3" cx="497.8" cy="446.6" r="390.7"/>
		<g>
			<g>
				<g>
					<path class="st4" d="M464.5,740.4c0.6,5.8,0.2,60.2-4.2,77.2h116.5c2.3-2.5,4.4-5.3,6.4-8c22-29.9,47.3-57.4,75.1-82
						c23.7-20.9,57.3-37.7,65.9-70.6c3.4-13.2-5.9-24.4-7.4-37.5c-1.2-9.7,0.7-20.3,7.2-27.6c8.8-10,24.6-12.6,31.8-23.8
						c8.6-13.3,0.8-30.7-6.9-44.5s-15.2-31.4-6.3-44.5c2.6-3.8,6.2-6.6,9.8-9.4c11.9-9.4,23.8-19.6,31.2-32.9s9.6-30.4,1.9-43.6
						c-11.2-19.1-38.3-23.5-50.7-41.7c-7.5-10.9-8.4-25.1-6.3-38.2c2.1-13.1,6.8-25.5,9.8-38.4c5-21.4,4.8-44.9-5.7-64.2
						s-33-32.9-54.5-28.4c-26,5.5-40.4,32.6-51.3,56.8c-8.4,18.6-15,49.9-33.2,61.3c-12.3,7.5-27.4,4.8-41.1,7.5
						c-25.2,5-45.7,30.7-47.4,59.1c-0.9,15.4,3.2,30.6,5,45.9s1,32.4-8.1,44c-7.2,9.2-18.4,13.5-25.5,22.8c-5.4,7-7.9,16.2-8.2,25.6
						c-0.1,3.5,0.1,7,0.6,10.5c3.1,20.7,22,55.9,4.8,75.3c-4.9,5.5-12.2,7.1-18.1,11.1c-8.2,5.6-13.4,15.7-15.2,26.3
						c-1.8,10.5-0.7,21.5,1.6,31.9C447.8,687.8,461.6,711.3,464.5,740.4z"/>
					<path class="st5" d="M882,582.4c-4.8-8.5-11.7-15.6-14.5-24.7c-3.5-11.3-0.6-23.9,3.9-34.9c6.9-17,26-51.2,6.4-67
						c-5.3-4.3-12.2-5.1-18.7-4c-15.5,2.6-28.4,15.1-37.4,29.4s-14.8,30.8-22.3,46.1c-5.6,11.5-13.1,23.3-24.3,27
						c-8.8,2.9-18.2,0.2-27.1-2.2c-12.9-3.5-27.5-6-38.8,1.8c-10.5,7.3-15.2,21.7-16.8,35.3c-1.6,13.7-1,27.7-4.2,41
						c-1.2,5.2-3.1,10.3-6.4,14.2c-7.9,9.8-21.4,10.2-33.2,9.4c-11.8-0.7-25-1.4-34,7.3c-8.7,8.5-10,22-15.6,32.6
						c-7.6,14.5-20.5,9.9-33.5,15c-7.8,3-15.1,8.1-20,15.5c-5.3,8-7.4,18.1-7.6,28c-0.3,20.6,2.5,55.9,25.3,65.4
						c7,2.9,14.8,2.8,22.3,2.7c12.3-0.2,24.5-0.4,36.8-0.6c24.7-0.4,33.4-26.1,58.8-30c11.9-1.9,24.1,0,35.9-1.7
						c17.7-2.5,34-13.2,43.3-28.5c6.6-10.8,10-23.7,18.9-32.6c10.4-10.3,25.9-12.8,39.8-17.2c14-4.3,28.9-13.1,31.1-27.5
						c0.9-5.6-0.4-11.3-0.5-17c-0.1-12,5.2-23.9,14.3-31.6c5.6-4.8,12.6-8.2,17.2-14c6.2-7.8,6.8-18.9,4.2-28.5
						C884.9,588.1,883.6,585.2,882,582.4z"/>
					<path class="st5" d="M284.1,502.5c-1,5.9-2.7,11.7-4.8,17.1c-6.3,16-16,30.4-21.8,46.6c-8.3,23.1-7.6,49.4,0.8,73.7
						c10.1,29.2,28.3,44.3,51.5,64.4c38,32.9,70.6,71.3,96,113.2h175.7c-1.8-32.3-4.3-64.5-7.3-96.8c-2.8-29.9-2-68-16.2-95
						c-10.6-20.2-29.6-34.3-46.6-49.5c-17-15.2-33.3-33.9-35.4-56.6c-1.8-19.5,7.4-38.1,14.7-56.4c7.3-18.2,12.7-39.4,4-56.9
						c-8.8-17.7-29.1-26.1-47.9-32.4s-39.2-13-50.3-29.4c-23.3-34.6,0.3-110.3-60.6-111.3c-18.2-0.3-32.6,15.1-37.3,33
						c-4.8,17.9-1.8,37.7,2.4,56.6c3.8,17.3,4.7,28.3-14.1,30.2c-17.8,1.8-32.5,10.1-41.1,25.1s-8.5,34.8,1.2,50.6
						c8.9,14.5,24.8,24.8,32.7,39.8C285.2,479.3,286,491.1,284.1,502.5z"/>
					<path class="st4" d="M218.8,649.6c8.1,9.4,12.8,22.1,10.7,34.3c-0.8,4.3-2.3,8.4-4,12.4c-3,6.8-6.5,13.5-7.7,20.8
						c-3.7,22.9,16.6,42.8,37.5,52.8s44.9,15,62.1,30.5c5.3,4.8,9.9,10.5,15.9,14.4c6.3,4.1,14.9,4.6,23.3,5.2H518
						c-9.7-29-25.7-56.6-46.7-78.8c-19.9-21-50.7-34.4-60-63.7c-4.5-14.1-7.3-29.6-17.5-40.3c-11.2-11.6-28.3-14.6-44-18.4
						c-15.7-3.8-32.8-10.6-39-25.5c-4.6-11.1-1.9-23.6-1.6-35.6c0.3-12.1-2.1-24.6-8.7-34.8c-6.6-10.2-17.8-17.8-29.9-18.2
						c-10.3-0.4-23.2,4-32-3.3s-16.9-23-24.8-32.2c-9.4-10.8-18.9-21.7-30.8-29.5c-11.9-7.8-26.8-12.3-40.6-9
						c-6.6,1.6-12.9,5.1-17.3,10.3c-8.1,9.7-8.4,23.9-5.2,36.1c3,11.4,8.8,22.1,16.8,30.9c10.7,11.8,26.2,22.3,26.3,38.2
						c0.1,6.8-2.9,13.3-5.4,19.6c-6.7,17-9.1,38.9,4.3,51.5c7.1,6.6,17,9,26.1,12.3C199.6,634,210.7,640.2,218.8,649.6z"/>
					<path class="st6" d="M571.7,821.7c25.9-32.6,57.1-61,92-83.7c44.8-29.3,98.1-51.7,124.7-98.2c8.2-14.4,13.4-30.3,18.4-46.1
						c6.2-19.3,12.4-38.6,18.6-57.9"/>
					<path class="st6" d="M195.3,531.7c27.6,18.7,49.4,45.7,61.9,76.6c4.3,10.7,7.7,22.1,14.6,31.4c7.9,10.6,19.7,17.6,29,27
						c13.3,13.5,20.9,31.5,31.3,47.3c26.3,40,69.7,65,103.7,98.7c2.1,2.1,4.6,5.1,3.1,7.7c-1.5,2.6-6.1-2.1-3.1-2.3"/>
					<path class="st6" d="M392.8,685.1c-18.5-7.6-37.5-15.5-51.9-29.4s-23.3-35.3-16.9-54.3c3.4-9.8,10.5-18.1,13.2-28.1
						c6.6-23.9-12.9-46-25.7-67.2c-15.8-26.2-22.4-64,3.9-85.3c12.6-10.2,28.2-18,35.4-32.5c8.6-17.2,2.4-37.6-0.6-56.6
						c-2.3-14.1-2.7-28.5-1.3-42.7c1.1-10.9,3.4-22,9.7-30.9c6.3-8.9,17.4-15.2,28.1-13.1c17,3.3,23.9,23.6,26.2,40.7
						c2.3,17.1,4.7,37.1,19.5,46c12,7.2,28.4,4.1,39.8,12.4c25.9,18.8-1.8,54.3,16.1,76.5c9,11.2,24.6,13.8,37.6,19.9
						c30.3,14.2,46.7,48.8,49.2,82.1c2.6,33.4-6.2,66.4-13.8,99c-7.5,32.6-13.9,66.6-6.6,99.3"/>
				</g>
				<g>
					<path class="st7" d="M377.3,421.8c-3.3,23.7,5.4,49.1,26.1,65.5c28,22.1,67.7,40.1,83.9,73.5c5.4,11.2,8.5,23.7,15.8,33.8
						c7,9.7,17.4,16.3,27.6,22.4c13,7.8,26.5,15.2,41.3,18.3c29.3,6,54.1-9,77.7-24c11.1-7,15.5-22,12.6-34.8s-11.7-23.6-22-31.8
						c-5.8-4.6-12.2-8.6-16.9-14.2c-4.8-5.6-7.7-13.6-5.1-20.5c1.3-3.3,3.7-6.1,6.3-8.6c19-18.4,48.5-22.5,69-41.1
						c9.7-8.8,21.3-17.5,15.6-31.1c-4.2-10-18.5-15.5-28.3-11.6c-4.8,1.9-9.7,5.6-14.6,4.1c-4.2-1.3-6.6-6.1-6.4-10.5
						c0.3-4.4,2.6-8.4,5.2-12c12.3-16.9,29.2-21.3,46.3-31c13.5-7.7,27.1-20.2,36.3-32.6c9.6-13.1,15.4-29.2,14.6-45.4
						c-0.8-16.2-8.4-32.3-21.4-42c-20.1-15-50.7-9.1-72.1,0.5c-23.8,10.6-44,30.1-54,54.3c-3.7,9-6.2,18.6-11.1,27
						c-3.9,6.7-9.3,12.6-15.6,17.1c-6,4.2-13.6,7.3-20.6,5.2c-6.6-2-11.3-8.3-12.3-15.1c-1.8-12.7,9.4-20.8,8-33.7
						c-1.1-10.5-7.1-20.6-15.8-26.7c-12.9-9-30.4-9.8-45.1-4.4c-18.7,6.8-33.7,23.3-38.7,42.6c-2.4,9.2-2.7,19.2-7.3,27.5
						c-8.8,15.9-29.1,20.1-44.9,29.1C391.5,382.8,380.1,401.7,377.3,421.8z"/>
					<path class="st8" d="M509.7,630.8c-10.2-2.4-20.7-3.3-31.1-2.7c-11.1,0.7-22.8,3.5-30.4,11.6c-1.9,2-3.6,4.4-5.9,6
						c-6.3,4.5-15.1,2.2-22.8,3.5c-7.3,1.2-13.6,5.7-20.5,8.3c-9,3.5-18.7,3.8-28.1,5.6c-8.6,1.7-16.5,5.7-24.3,9.3
						c-13.7,6.4-28.7,15.6-35.6,29.7c-5.1,10.5-3.6,21.8,2.3,31.7c9.1,15.4,29.9,19.2,47.7,17.4c18.1-1.8,36.7-8.7,54.2-2.1
						c16.4,6.2,36.6,11.1,54.1,12.7c13.8,1.2,27.8,0,41.5-1.6c24.9-2.9,49.6-9.7,74.5-9.8c28-0.1,66.8,1,88.2-20.4
						c12.9-12.9,14.1-29.8,2.3-43.9c-5.5-6.6-12.5-11.8-20-15.9c-3.7-2-7.7-3.9-11.7-5.3c-4.4-1.5-8.4-3.9-12.9-5.2
						c-4.8-1.4-9.8-2.1-14.8-2c-9.5,0.2-19.2,3.4-28.4,1c-4.2-1.1-8-3.3-12.2-4.4c-6.1-1.6-12.7-0.8-18.8-2.4
						c-6-1.6-11.2-5.3-16.5-8.6C530.9,637.6,520.5,633.4,509.7,630.8z"/>
					<path class="st9" d="M466.3,539.5c-1.8-14.7-1.2-31.9-7.1-46c-10,2.8-20.7,1.3-30.6,4.5c-11.8,3.8-22.4,11.8-28.7,22.6
						c-5.5,9.4-7.9,20.6-14.3,29.5c-3.9,5.5-9.2,10-13.8,14.9c-12.3,13.2-20,30.6-21.7,48.6c-0.4,4.6-0.4,9.4,1.7,13.5
						c6.2,11.7,23,4.6,30.5-1.6c8.3-7,14.6-17.1,21.9-25.2c2.2-2.4,4.4-4.8,7-6.6c2.4-1.6,5-2.6,7.5-4c8.8-4.9,14.6-13.8,18.4-23.1
						c0.5-1.1,0.9-2.3,1.8-3.2c2.2-2.3,6.2-1.7,8.6,0.3c5.6,4.7,6.9,16.3,12.7,19.6c1.7,0.9,3.7,0.9,5.6,0.9c1.3,0,2.5-0.1,3.8-0.1
						C469.7,569.2,468,554.3,466.3,539.5z"/>
					<path class="st10" d="M524.2,497.1c-1.5-0.8-3.1-1.9-4.8-3.5c-4.8-4.4-7.9-10.1-9.6-16.3c-1.4-4.9-1.9-10.1-1.5-15.2
						c0.5-7.1,2.6-14.1,6.4-20.2c1.2-2,2.6-3.9,3.7-5.9c2.1-4,2.3-8.1,3.2-12.4c2.3-10.2,2-21.6,1-31.9c-0.2-1.5-0.4-3.1-1.2-4.4
						c-2.4-3.6-9.7-4.8-13.2-7.5c-5.1-3.9-10.9,0.2-16.7,1.6c-6.7,1.6-13.5,2.7-20.4,3.1c-1.2,0.1-2.4,0.1-3.5,0.6
						c-3,1.3-3.8,5.2-4.1,8.4c-1,11.4-1.8,23.9,1.8,34.9c1.1,3.5,2.8,6.7,4.3,10.1c2.5,5.5,5.9,9.7,7.2,15.8
						c3.5,16.3-4.1,36.6-21.8,40.3c7.7,13,11.3,27.8,14,42.5c0.8,4.4,5.9,46.7,4.1,46.8c11.9-0.4,24-1.9,33.6-8.7
						c4.9-3.5,8.7-8.6,13.6-12c1.8-1.2,3.6-2.1,5.5-2.8C523.2,539.4,522.6,518.3,524.2,497.1z"/>
					<path class="st9" d="M624.6,595.7c-3-8.4-6-17-10.8-24.5c-5-7.9-11.8-14.5-17.1-22.3c-6.2-9.1-10.1-19.6-16.8-28.3
						c-9.7-12.6-25.7-21-41.7-21.4c-4.4-0.1-7.7,0-10.8-0.9c-1.5,20.3-0.9,40.7,1.4,60.9c2.7-0.8,5.5-1.3,8.3-2.1
						c1.2-0.3,2.6-0.7,3.8-0.3c0.9,0.3,1.7,1,2.3,1.7c3.4,3.4,6.2,7.4,8.2,11.8c2.1,4.4,3.5,9.3,6.3,13.3c3.9,5.5,10,8.8,15.3,13
						c12.5,9.8,31.1,51.3,51.8,41.8C641.9,630.6,628.7,607.2,624.6,595.7z"/>
					<path class="st9" d="M440.2,617.5c0.8,3,1.5,6,2.1,9.1c1,5.5,2.5,15.6-2.7,19.3c14.1,3.9,30.1,4.6,44.6,5
						c11.1,0.3,22.1-0.1,33.1-1.3c4.7-0.5,9.5-0.6,14.2-1.2c3.9-0.5,7.9,0,11.4-2c0.6-0.3,1.1-0.7,1.4-1.3c0.2-0.5,0.1-1.1,0.1-1.7
						c-1.2-9-2.6-18.2-1.2-27.3c1.2-7.4,4.2-14.4,6.4-21.6c2.4-7.6,3.9-15.4,4.6-23.3c0.3-3.2,0.4-6.6-0.8-9.7
						c-1.1-2.8-3.1-5.1-5.2-7.4c-4.7-5.1-12.1-11.7-14-18.6c-2-7.4-0.4-16.9,2.2-24c1.5-4.1,3.1-8.4,6.3-11.3
						c-0.3,0.3-2.2-0.5-4.4-1.4c-3.7-0.4-7.3-0.9-10.9-1.8c-1.6-0.4-3.4-0.9-5.1-1.5c-8.3,8.4-22.2,11.9-33.5,11.3
						s-22.4-5.8-29.8-14.3c-4.3,1.7-8.9,2.9-13.4,3.5c3,2.3,4.9,5.9,5.9,9.6c3.2,12.5,2.4,25.9-2.7,37.8
						c-2.4,5.6-6.1,12.5-11.1,16.4c-2.3,1.8-4.4,2-5.8,4.8c-1.5,3.1-1.5,6.9-0.7,10.2c1.1,4.9,3.6,9.4,4.9,14.3
						c1.5,6,1.2,12.2,1.9,18.3C438.6,610.8,439.4,614.1,440.2,617.5z"/>
					<path class="st6" d="M486.1,582.1c-6.5,8-16.4,11.9-25.7,10.2c-9.3-1.7-17.7-9-21.8-18.9"/>
					<path class="st6" d="M502.5,582.1c6.5,8,16.4,11.9,25.7,10.2c9.3-1.7,17.7-9,21.8-18.9"/>
					<path class="st10" d="M361,643.3c7.6,6.1,17.5,10.2,24,10.6c14.6,0.9,28.4-6.6,42.9-8.9c7.2-1.2,14.6-1.1,21.7-2.6
						c6-1.3,11.6-3.7,17.2-6.1c4.6-2,10-2.8,14.4-5.3c1.4-0.8,2.7-1.9,3.9-2.9c4.7-4,5.2-12.6,5.9-18.4c1.3-10.9,4.7-22.3,3.7-33.2
						c-0.2-2.5-1.6-5.7-4-5.2c-1.6,0.4-2.3,2.3-2.7,3.9c-1.7,6.9-3.3,13.8-5,20.8c-1,4.3-2.1,8.7-4.5,12.4
						c-6.4,9.8-21.3,7.7-31.3,7.4c-12.8-0.3-25.6-1.8-38.1-4.3c-9.9-2-19.8-4.7-29.9-4.4c-8.4,0.2-22.4,3.7-27,11.8
						C347.2,627.7,352.7,636.6,361,643.3z"/>
					<path class="st10" d="M623.1,644c-5.1,3.4-11.2,5.2-17.1,6.7c-5.9,1.5-12,2.7-18,1.8c-6.3-0.9-12-4.2-18.2-5.8
						c-10.3-2.8-21.3-1.1-31.7-3.6c-9.6-2.3-18.3-8-28.1-9.1c-5.9-0.6-12.6,0.3-17.1-3.5c-6.9-5.7-2.9-14.1-2.7-21.4
						c0.4-12.1-1.4-25.4,2.4-37.1c4.8,4.5,6.4,11.4,6.9,17.9c0.6,6.5,0.4,13.3,2.8,19.4c3.7,9.4,24.5,6.5,32.1,6.3
						c13.2-0.3,26.3-1.8,39.2-4.3c10.2-2,20.3-4.7,30.7-4.4c17.9,0.5,42.2,16.2,22.3,34.3C625.5,642.3,624.3,643.2,623.1,644z"/>
					<path class="st7" d="M500.8,390c7.4-3.3,15.7-4.5,22.8,0.2c1.6,1,3.1,2.4,4.9,3c4.6,1.7,9.8-1.9,11.8-6.3
						c2.6-5.7,1.6-12.1,2.3-18.1c0.6-5.7,2.7-11.3,3.1-17c0.6-8.8-2.3-20.4-10.8-24.7c-6.1-3.1-13.5-1.2-19.6,1.7
						c-8.3,3.9-15.6,9.5-21.7,16.4c-9.7,10.9-35.4,23.6-33,41.3c0.5,3.7,2.7,6.9,4.8,9.9c1.5,2.1,3.2,4.3,5.5,5.6
						c5.5,3,12.4-0.2,17.3-4.1C491.7,395,496.1,392.1,500.8,390z"/>
					<path class="st10" d="M526.7,412.1c-2.2-1.8-5.3-1.4-7.3,0.4c-1.8,1.6-2.4,3.5-1.8,5.4c-0.5,0.7-0.8,1.6-0.6,2.5
						c0,0.2,0.1,0.4,0.1,0.6c0.3,1.3,1.4,2.3,2.7,2.7C526.2,425.3,532.4,416.8,526.7,412.1z"/>
					<path class="st10" d="M469.2,419.1c0.2-1.6-0.2-2.8-0.5-4.4c-0.1-0.4-0.2-0.7-0.4-0.9c-0.2-0.7-0.5-1.3-1.3-1.6
						c-5.8-2.7-13,1.9-10,8.6c1.2,2.7,3.9,4.2,6.8,3.9c2.5-0.2,4.7-2,4.9-4.4C469,419.9,469.2,419.5,469.2,419.1z"/>
					
						<linearGradient id="SVGID_3_" gradientUnits="userSpaceOnUse" x1="502.4031" y1="603.6132" x2="497.6451" y2="640.7257" gradientTransform="matrix(1 0 0 1 0 -179.6266)">
						<stop  offset="0.684" style="stop-color:#2B265D;stop-opacity:0.9148"/>
						<stop  offset="1" style="stop-color:#FF8270;stop-opacity:0"/>
					</linearGradient>
					<path class="st11" d="M510.7,447.5c-5.9,4.7-12.4,5.3-19.6,5c-1.1,0-1.9-0.1-2.5-0.2c-0.8,4.6-1.8,9.2-3,13.8
						c2.1,0.6,4.1,1.5,6.1,2.4c5.1,2.5,10.3,5.1,15.4,7.6c0.8-4.8,0.3-9.7,0.3-14.6C507.5,456.7,508,451.7,510.7,447.5z"/>
					<path class="st10" d="M484.1,722.9c-19.2-2.7-38.7-1.7-58-3.4c-10.3-0.9-20.2-3.8-30.2-6.3c-7.9-2-19.4-3.7-27.4-2.4
						c-2.7,0.4-5.3,1.2-8,1.2s-5.6-1.1-6.9-3.5s-0.5-5.5,1.2-7.6s4.3-3.4,6.8-4.5c16.1-6.8,34.8-6.7,49.6-15.7
						c1.5-0.9,3-1.9,4.7-2.4c6.4-1.7,15,5.8,19.1,10.2c2.7,2.8,7,3.6,10.9,4c11.2,1.3,22.5,1.7,33.8,1.1c6.4-0.3,4,12.2,4.1,16.6
						C483.9,711,483.8,722.9,484.1,722.9z"/>
					<path class="st8" d="M650.9,679.9c-12.7,0.1-24.8,3.7-37.1-0.6c-12.4-4.3-25.3-10.6-38.6-6.1c-10.9,3.7-20.9,13.2-32.9,12.4
						c-4.8-0.3-9.3-2.4-13.8-3.9c-9.9-3.2-15.4,1.1-24.5,4.3c-5.3,1.8-10.7,3-16.3,3.4c-7.2,0.6-12.3-2-13.9,6.7
						c-2.1,11.4-3.7,23.1-5.9,34.5c-0.4,2.3-0.9,4.6-1.4,7c-0.4,3.1-0.9,6.2-1.5,9.2c4.9,0.9,9.8,1.9,14.7,2.7
						c30.9,5.4,62.1,10.6,93.5,11.2c27.6,0.5,61.5-0.3,86.9-12.2c9.4-4.4,18-11,22.9-20.1c2.8-5.1,4.2-10.2,4.6-14.9
						C689.2,694.2,672.3,679.6,650.9,679.9z"/>
					<path class="st10" d="M534.2,776.3c20.4-1.9,41,0.1,61.5-0.6c20.8-0.8,42.6-9.9,63.2-3.1c2.3,0.8,4.8,1.7,7.2,1.4
						c2.4-0.4,4.8-2.8,4-5.1c-0.3-0.8-0.8-1.5-1.4-2.2c-5.8-6.9-11.5-10.1-19.5-14.1c-8.3-2.9-17.5-2.6-25.5-6.7
						c-8.4-4.4-17.2-10.9-26.4-8.8c-3.3,0.8-6.2,2.5-9.2,3.9c-11,4.9-19.3,1.4-30.2,0.9c-1.5-0.1-21.5-0.5-21.5-0.1
						C536.4,741.6,534.2,776.3,534.2,776.3z"/>
					<path class="st8" d="M555.3,770c1.6-10.2,5.8-22.3,5.3-32.5c-3.9-0.3-7.8-0.7-11.7-1c-2.3-0.2-4.7-0.4-6.8-1.4
						c-2.7-1.2-4.6-3.5-6.7-5.6c-15.8-16-38.1-23.8-60.1-20.7c-5.3,0.8-10.7,1.9-16.1,1.3c-7.6-0.8-15.7-5-22.6-7.9
						c-8.8-3.7-17.6-7.3-26.6-10.3c-8.3-2.7-16.7-5.1-25.4-5.4c-6.3-0.3-12.5,0.6-18.8,1.1c-7.5,0.6-15,0.8-22.5,0.5
						c-6.3-0.2-12.8-1.6-18.8,1c-4.1,1.8-7.4,5.1-10,8.8c-6.1,8.7-9.2,19.6-7.7,30.1s7.7,20.4,17,25.6c5.6,3.1,11.9,4.5,18.2,5.7
						c30.8,5.6,62.5,7.4,93.5,11.7c38.4,5.3,77.5,10.4,116.2,11.9c0.6,0,1.2,0,1.6-0.4c0.2-0.2,0.3-0.6,0.3-0.9
						C554.1,777.6,554.7,773.8,555.3,770z"/>
					<path class="st12" d="M489.5,430.2c1.5,1.3,3.4,2,5.3,2s3.9-0.8,5.3-2.1"/>
					<path class="st12" d="M471.6,412.9c3.6,2.5,8.8,2.5,12.5-0.1"/>
					<path class="st12" d="M501.3,412.3c0.7,1,1.9,1.6,3.2,1.9c2.8,0.7,5.9,0,8.1-1.7"/>
					<path class="st13" d="M756.7,820.3"/>
					<path class="st13" d="M248.8,820.3"/>
					<path class="st14" d="M542,835.7"/>
					<path class="st14" d="M319.5,835.7"/>
					<path class="st14" d="M659.9,835.7"/>
					<path class="st14" d="M581.3,835.7"/>
					<path class="st15" d="M479.6,852.6"/>
					<path class="st14" d="M451.7,852.6"/>
					<path class="st14" d="M426.8,852.6"/>
					<path class="st6" d="M446.7,706.6c3.4,3.3,8.6,3.6,13.3,3.4c12.6-0.5,25.2-2.4,37.6-0.5c13.5,2,26.2,8.5,35.7,18.3
						c1.8,1.8,3.5,3.8,5.7,5c1.7,1,3.6,1.5,5.6,1.8c4.7,0.9,12.3,2.2,17.1,1.9c-1.7,7-3.1,13.2-3.9,20.4c-0.6,5.5-1.1,11.2-3.8,16.1
						"/>
					<path class="st6" d="M574.3,754.4c1.3-0.9,3.3-0.7,4.4,0.5c1.1,1.2,1,3.3-0.1,4.4"/>
					<path class="st6" d="M607.4,678.3c-9.1-1.8-17.7-7.2-26.9-6.3c-13,1.2-23.1,14.2-36.1,13.9c-8.1-0.2-15.6-5.7-23.7-5.1
						c-4.8,0.3-9.2,2.8-13.7,4.6c-9.7,4-20.5,5.4-30.8,4c-1.4,6.7-2.9,13.3-4.3,20"/>
					<path class="st6" d="M672.6,710.3c2,0.6,3.6,2.5,3.9,4.6c0.3,2.1-0.6,4.3-2.4,5.5"/>
					<path class="st6" d="M321.2,714c-2.4,0.8-4.3,2.9-5,5.4c-0.6,2.5,0.1,5.2,1.9,7.1"/>
					<path class="st6" d="M627.1,627.5c0.8,2.2,0,4.8-1.8,6.2"/>
					<path class="st6" d="M359.7,622.9c-1.5,2.1-0.9,5.3,1.2,6.8"/>
					<path class="st6" d="M522.1,496.4c-6.3,5.8-14.6,9.1-23.1,10.2c-8.5,1-17.1-0.1-25.4-2.3"/>
					<path class="st6" d="M490.5,511.6c8.8-0.4,17.6-2.3,25.8-5.7"/>
					<path class="st6" d="M555.2,578.8c-0.3,0-0.5,0-0.8,0c-0.7-7.4-2.1-14.9-2.8-22.3"/>
					<path class="st6" d="M432.6,574.7c1.2-8,2.5-15.9,3.7-23.9"/>
				</g>
				<g class="st16">
					<path class="st8" d="M735.8,278.3c0,0.7-0.6,1.3-1.3,1.3s-1.3-0.6-1.3-1.3c0-0.7,0.6-1.3,1.3-1.3S735.8,277.6,735.8,278.3z"/>
					<path class="st8" d="M704.4,335.9c0,0.7-0.6,1.3-1.3,1.3s-1.3-0.6-1.3-1.3c0-0.7,0.6-1.3,1.3-1.3S704.4,335.2,704.4,335.9z"/>
					<path class="st8" d="M699.1,266.6c0,1.4-1.2,2.6-2.6,2.6c-1.4,0-2.6-1.2-2.6-2.6c0-1.4,1.2-2.6,2.6-2.6
						C698,263.9,699.1,265.1,699.1,266.6z"/>
					<path class="st8" d="M704.9,290.7c1.7,1.7,1.7,4.6,0,6.3c-1.7,1.7-4.6,1.7-6.3,0c-1.7-1.7-1.7-4.6,0-6.3
						C700.3,288.9,703.2,288.9,704.9,290.7z"/>
					<path class="st8" d="M659.9,295.4c0,1.4-1.2,2.6-2.6,2.6c-1.4,0-2.6-1.2-2.6-2.6c0-1.4,1.2-2.6,2.6-2.6
						C658.7,292.7,659.9,293.9,659.9,295.4z"/>
					<path class="st8" d="M560.4,377.8c0,0.7-0.6,1.3-1.3,1.3s-1.3-0.6-1.3-1.3c0-0.7,0.6-1.3,1.3-1.3S560.4,377.1,560.4,377.8z"/>
					<circle class="st8" cx="629.7" cy="396.1" r="1.3"/>
					<path class="st8" d="M631.1,436.7c0,1.4-1.2,2.6-2.6,2.6c-1.4,0-2.6-1.2-2.6-2.6s1.2-2.6,2.6-2.6
						C629.9,434.1,631.1,435.3,631.1,436.7z"/>
					<path class="st8" d="M680.8,435.4c0,0.7-0.6,1.3-1.3,1.3s-1.3-0.6-1.3-1.3c0-0.7,0.6-1.3,1.3-1.3S680.8,434.7,680.8,435.4z"/>
					<path class="st8" d="M735.8,321.5c0,1.4-1.2,2.6-2.6,2.6c-1.4,0-2.6-1.2-2.6-2.6c0-1.4,1.2-2.6,2.6-2.6
						S735.8,320.1,735.8,321.5z"/>
					<circle class="st8" cx="492.3" cy="303.2" r="2.6"/>
					<path class="st8" d="M479.2,362.1c0,0.7-0.6,1.3-1.3,1.3c-0.7,0-1.3-0.6-1.3-1.3c0-0.7,0.6-1.3,1.3-1.3
						S479.2,361.4,479.2,362.1z"/>
					<path class="st8" d="M523.7,328.1c0,0.7,0,1.3,0,1.3S523.7,328.8,523.7,328.1c0-0.7,0-1.3,0-1.3S523.7,327.4,523.7,328.1z"/>
					<path class="st8" d="M531.6,308.4c0,1.4-1.2,2.6-2.6,2.6c-1.4,0-2.6-1.2-2.6-2.6c0-1.4,1.2-2.6,2.6-2.6
						C530.4,305.8,531.6,307,531.6,308.4z"/>
					<path class="st8" d="M539.4,320.2c0,2.2-1.8,3.9-3.9,3.9c-2.2,0-3.9-1.8-3.9-3.9c0-2.2,1.8-3.9,3.9-3.9
						C537.7,316.3,539.4,318.1,539.4,320.2z"/>
					<path class="st8" d="M405.9,421c0,1.4-1.2,2.6-2.6,2.6s-2.6-1.2-2.6-2.6s1.2-2.6,2.6-2.6C404.7,418.4,405.9,419.6,405.9,421z"
						/>
					<path class="st8" d="M418.4,413.6c-1.7,0-1.7,2.6,0,2.6C420,416.2,420,413.6,418.4,413.6z"/>
					<path class="st8" d="M415.3,437.5c-1.7,0-1.7,2.6,0,2.6S417,437.5,415.3,437.5z"/>
					<path class="st8" d="M423.7,429.2c-0.5-0.1-1,0-1.4,0.2c-1.4,0.5-1.1,2.4,0.3,2.6c0.2,0,0.3,0,0.5,0.1c0.4,0,0.6-0.1,0.8-0.2
						C425.3,431.6,425.2,429.3,423.7,429.2z"/>
				</g>
				<path class="st8" d="M721.2,473.1c0.7,0.5,1.4,0.9,2.1,1.3h191.6c1-7.7-8-19.3-13.2-22.7c-6.2-4.1-14-4.6-21.4-4.3
					c-7.1,0.3-14.5,1.1-20.8,4.6c-0.7-6.6-4.8-12.7-10.7-15.8c-11.5-6.1-28.6,0.2-30.9,13.6c0.9-16.3-13.9-32.1-30.2-31
					S758.8,439,765.2,454c-2.4-5.7-58.2-6.1-47.8,14.9C718.3,470.7,719.6,472,721.2,473.1z"/>
				<path class="st8" d="M575.4,206.2c0.7-2.5,0.9-5.1,0.5-7.8c-1.7-12.2-13.6-17.5-23.6-18.4c-7.2-0.7-14,0.2-21.1,0.7
					c4.9-8.2,1.3-20.8-4.1-27.9c-5.8-7.7-15.5-12.2-25.1-11.9c-3.2,0.1-6.3,0.7-9.3,1.6c-14.5,4-23.4,13.2-25.6,26.7
					c-1.6-1.3-3.3-2.5-4.8-3.4c-7.3-4.7-15.5-5.6-23.6-2c-6.7,3-11.7,8.7-14.4,15.5c-0.1,0.2-0.2,0.4-0.2,0.7
					c-23-16-55.9-3-71.1,19.6c-1.5,2-2.7,4.2-3.8,6.6L575.4,206.2L575.4,206.2z"/>
				<path class="st8" d="M145.4,387.1c0.5-3.6,1.7-7.2,2.7-10.7c1.7-5.5,3.9-11.1,8.3-14.9c6-5.2,15-5.6,22.5-3.1
					c7.2,2.4,12.5,8.2,19.1,10.9c1.9-8.6,0.5-17.1,4.2-25.6s11.8-16,21.6-16.4c9.4-0.4,18.1,5.8,22.8,13.5
					c4.7,7.7,6.2,16.7,7.7,25.5c2.3-12.5,16.1-22.9,29.3-20.2c13.2,2.8,20.6,20.3,11.3,29.7c10.6-3.2,27.6-3.2,34.6,9.8
					c0.2,0.4,0.5,0.7,0.6,1.1c-0.5-1.2-18.4,0-19.9,0C255.3,386.7,200.1,387.7,145.4,387.1z"/>
				<path class="st17" d="M71.2,591.9c-8.6-3.7-12.6-13.8-8.8-22.4c3.7-8.6,13.8-12.6,22.4-8.8"/>
				
					<ellipse transform="matrix(0.9239 -0.3827 0.3827 0.9239 -224.0867 89.9318)" class="st18" cx="114" cy="608.2" rx="26.2" ry="26.2"/>
				<path class="st17" d="M106.1,541.5c0,5.1-4.1,9.2-9.2,9.2s-9.2-4.1-9.2-9.2c0-5.1,4.1-9.2,9.2-9.2S106.1,536.4,106.1,541.5z"/>
				<path class="st17" d="M804.9,773.1c3.3-3.2,8.5-3.1,11.6,0.2c3.2,3.3,3.1,8.5-0.2,11.6"/>
				<path class="st17" d="M797.3,798c0,2.2-1.8,3.9-3.9,3.9c-2.2,0-3.9-1.8-3.9-3.9c0-2.2,1.8-3.9,3.9-3.9S797.3,795.9,797.3,798z"
					/>
				<circle class="st17" cx="823.5" cy="804.6" r="10.5"/>
			</g>
			<path class="st5" d="M626.4,819.9c0,0-58.6,19.4-100.8,19.7c-42.2,0.4-60.5-4-60.5-4l47.4-37.7L626.4,819.9z"/>
			<path class="st4" d="M334.3,815.3c0,0,51.7,36.6,127.7,36.6s56-32,56-32L334.3,815.3z"/>
			<polygon class="st4" points="518.1,819.9 510.2,799.9 478.6,792.6 469.1,825.8 510,833.6 			"/>
		</g>
	</g>
</g>
</svg>
