<?xml version="1.0" encoding="utf-8"?>
<!-- Generator: Adobe Illustrator 24.3.0, SVG Export Plug-In . SVG Version: 6.00 Build 0)  -->
<svg version="1.1" id="visual" xmlns="http://www.w3.org/2000/svg" xmlns:xlink="http://www.w3.org/1999/xlink" x="0px" y="0px"
	 viewBox="0 0 900 436.1" style="enable-background:new 0 0 900 436.1;" xml:space="preserve">
<style type="text/css">
	.st0{fill:#FFFFFF;}
	.st1{fill:#1F91A3;}
</style>
<rect y="188.2" class="st0" width="900" height="600"/>
<path class="st1" d="M0,368.2l21.5-3.3c21.5-3.4,64.5-10,107.3-2.7c42.9,7.3,85.5,28.7,128.4,43c42.8,14.3,85.8,21.7,128.6,20.7
	c42.9-1,85.5-10.4,128.4-19.9c42.8-9.5,85.8-19.1,128.6-30.5c42.9-11.3,85.5-24.3,128.4-18c42.8,6.4,85.8,32,107.3,44.9l21.5,12.8
	v-227h-21.5c-21.5,0-64.5,0-107.3,0c-42.9,0-85.5,0-128.4,0c-42.8,0-85.8,0-128.6,0c-42.9,0-85.5,0-128.4,0c-42.8,0-85.8,0-128.6,0
	c-42.9,0-85.5,0-128.4,0c-42.8,0-85.8,0-107.3,0H0V368.2z"/>
<rect x="-12" y="-7.9" class="st1" width="936" height="238.9"/>
</svg>
