<?xml version="1.0" encoding="utf-8"?>
<!-- Generator: Adobe Illustrator 24.3.0, SVG Export Plug-In . SVG Version: 6.00 Build 0)  -->
<svg version="1.1" id="visual" xmlns="http://www.w3.org/2000/svg" xmlns:xlink="http://www.w3.org/1999/xlink" x="0px" y="0px"
	 viewBox="0 0 900 408.1" style="enable-background:new 0 0 900 408.1;" xml:space="preserve">
<style type="text/css">
	.st0{fill:#FFFFFF;}
	.st1{fill:#1F91A3;}
</style>
<rect y="231.2" class="st0" width="900" height="600"/>
<path class="st1" d="M0,306.2l13.7,3.8c13.6,3.9,41,11.5,68.3,19.4c27.3,7.8,54.7,15.8,81.8,22.8c27.2,7,54.2,13,81.4,13.8
	c27.1,0.9,54.5-3.5,81.8,1.9c27.3,5.3,54.7,20.3,82,24.6c27.3,4.4,54.7-2,82-6.1c27.3-4.2,54.7-6.2,82-14.5
	c27.3-8.4,54.7-23,81.8-23.4c27.2-0.3,54.2,13.7,81.4,20.7c27.1,7,54.5,7,81.8,5s54.7-6,68.3-8l13.7-2v-133h-13.7
	c-13.6,0-41,0-68.3,0s-54.7,0-81.8,0c-27.2,0-54.2,0-81.4,0c-27.1,0-54.5,0-81.8,0s-54.7,0-82,0s-54.7,0-82,0s-54.7,0-82,0
	s-54.7,0-81.8,0c-27.2,0-54.2,0-81.4,0c-27.1,0-54.5,0-81.8,0s-54.7,0-68.3,0H0V306.2z"/>
<rect x="-21" y="-13" class="st1" width="929" height="262.1"/>
</svg>
