<?xml version="1.0" encoding="utf-8"?>
<!-- Generator: Adobe Illustrator 24.3.0, SVG Export Plug-In . SVG Version: 6.00 Build 0)  -->
<svg version="1.1" id="visual" xmlns="http://www.w3.org/2000/svg" xmlns:xlink="http://www.w3.org/1999/xlink" x="0px" y="0px"
	 viewBox="0 0 900 468.6" style="enable-background:new 0 0 900 468.6;" xml:space="preserve">
<style type="text/css">
	.st0{fill:#FFFFFF;}
	.st1{fill:#1F91A3;}
</style>
<rect y="154.7" class="st0" width="900" height="600"/>
<path class="st1" d="M0,321.7l21.5,6.7c21.5,6.6,64.5,20,107.3,38c42.9,18,85.5,40.6,128.4,37.8c42.8-2.8,85.8-31.2,128.6-16
	c42.9,15.2,85.5,73.8,128.4,66C557,446.4,600,372,642.8,350.4c42.9-21.7,85.5,9.3,128.4,17.6c42.8,8.4,85.8-6,107.3-13.1l21.5-7.2
	v-193h-21.5c-21.5,0-64.5,0-107.3,0c-42.9,0-85.5,0-128.4,0c-42.8,0-85.8,0-128.6,0c-42.9,0-85.5,0-128.4,0c-42.8,0-85.8,0-128.6,0
	c-42.9,0-85.5,0-128.4,0c-42.8,0-85.8,0-107.3,0H0V321.7z"/>
<rect x="-92" y="-15" class="st1" width="1040" height="203"/>
</svg>
