<?xml version="1.0" encoding="utf-8"?>
<!-- Generator: Adobe Illustrator 24.3.0, SVG Export Plug-In . SVG Version: 6.00 Build 0)  -->
<svg version="1.1" id="visual" xmlns="http://www.w3.org/2000/svg" xmlns:xlink="http://www.w3.org/1999/xlink" x="0px" y="0px"
	 viewBox="0 0 900 488" style="enable-background:new 0 0 900 488;" xml:space="preserve">
<style type="text/css">
	.st0{fill:#FFFFFF;}
	.st1{fill:#1F91A3;}
</style>
<rect y="100.1" class="st0" width="900" height="600"/>
<path class="st1" d="M0,254.1l21.5,30.7c21.5,30.6,64.5,92,107.3,127.5c42.9,35.5,85.5,45.1,128.4,41.3
	c42.8-3.8,85.8-21.2,128.6-54.3c42.9-33.2,85.5-82.2,128.4-84.4c42.8-2.1,85.8,42.5,128.6,59.5c42.9,17,85.5,6.4,128.4,16
	c42.8,9.7,85.8,39.7,107.3,54.7l21.5,15v-360h-21.5c-21.5,0-64.5,0-107.3,0c-42.9,0-85.5,0-128.4,0c-42.8,0-85.8,0-128.6,0
	c-42.9,0-85.5,0-128.4,0c-42.8,0-85.8,0-128.6,0c-42.9,0-85.5,0-128.4,0c-42.8,0-85.8,0-107.3,0H0V254.1z"/>
<rect x="-54" class="st1" width="986" height="136"/>
</svg>
