<?xml version="1.0" encoding="utf-8"?>
<!-- Generator: Adobe Illustrator 24.3.0, SVG Export Plug-In . SVG Version: 6.00 Build 0)  -->
<svg version="1.1" id="visual" xmlns="http://www.w3.org/2000/svg" xmlns:xlink="http://www.w3.org/1999/xlink" x="0px" y="0px"
	 viewBox="0 0 900 230.9" style="enable-background:new 0 0 900 230.9;" xml:space="preserve">
<style type="text/css">
	.st0{fill:#FFFFFF;}
	.st1{fill:#1F91A3;}
</style>
<rect y="0" class="st0" width="900" height="600"/>
<path class="st1" d="M0,141l21.5,9.3c21.5,9.4,64.5,28,107.3,17.5c42.9-10.5,85.5-50.1,128.4-55.6c42.8-5.5,85.8,23.1,128.6,44.3
	c42.9,21.2,85.5,34.8,128.4,22.8c42.8-12,85.8-49.6,128.6-70.6c42.9-21,85.5-25.4,128.4-3.9c42.8,21.5,85.8,68.9,107.3,92.5L900,221
	V0h-21.5C857,0,814,0,771.2,0c-42.9,0-85.5,0-128.4,0C600,0,557,0,514.2,0c-42.9,0-85.5,0-128.4,0C343,0,300,0,257.2,0
	c-42.9,0-85.5,0-128.4,0C86,0,43,0,21.5,0H0V141z"/>
</svg>
